<svg width="46" height="63" viewBox="0 0 46 63" fill="none" xmlns="http://www.w3.org/2000/svg">
<path d="M42.9572 11.7199H36.659L34.7966 3.76029L30.4807 0.503418H20.6551L17.5575 3.03506H16.4481L12.463 6.2918L11.4348 11.7199H6.73165L3.12506 14.457C2.24087 31.393 -0.272046 61.3366 0.0241122 61.7228C0.496476 62.3387 24.4212 63.0068 39.6071 61.9136C40.5959 61.8425 42.5208 57.2589 42.5208 57.2589C42.5208 57.2589 45.1694 58.2327 45.4916 58.1138C45.8097 57.9963 42.9572 11.7199 42.9572 11.7199ZM19.5224 11.7199L20.4585 6.26832L26.4061 6.29108L27.597 11.72H19.5224V11.7199ZM31.8597 11.7199L30.5896 6.2918L26.7662 3.40665L27.2165 3.74645L30.6132 3.75941L32.3595 11.7199H31.8597Z" fill="#C28A76"/>
<path d="M38.6139 14.4568C38.6057 24.1885 38.6362 61.9832 39.6071 61.9134C40.5077 61.8486 42.5208 59.1039 42.5208 59.1039C42.5208 59.1039 45.1368 58.2446 45.4916 58.1136C45.8097 57.9961 42.9572 11.7197 42.9572 11.7197L38.6139 14.4568Z" fill="#B17E6C"/>
<path d="M16.6888 6.25412L30.5897 6.29202L26.2738 3.03516H16.4482L12.4631 6.29202L16.6888 6.25412Z" fill="#CA9E84"/>
<path d="M19.5223 11.7193L20.4585 6.26772L16.6887 6.25342L15.28 14.4564H28.1973L27.5969 11.7193H19.5223Z" fill="#AF745E"/>
<path d="M3.12524 14.4568H10.9165L11.435 11.7197H6.73183L3.12524 14.4568Z" fill="#AF745E"/>
<path d="M36.659 11.7198L34.7966 3.76012L30.6133 3.75928L32.3595 11.7198H31.8598L32.5 14.4569H38.6139L42.9572 11.7198H36.659Z" fill="#AF745E"/>
</svg>
