<svg width="61" height="83" viewBox="0 0 61 83" fill="none" xmlns="http://www.w3.org/2000/svg">
<path d="M59.1346 69.1967C59.4319 70.7068 51.4273 76.2987 35.2588 79.483C19.0906 82.6677 5.11984 84.0699 0.584606 80.7288C-0.678091 79.7985 2.77167 75.7501 18.9398 72.5654C35.1079 69.3811 58.8372 67.6867 59.1346 69.1967Z" fill="#BFBBB8"/>
<path d="M49.8773 71.9277C54.7384 71.9277 58.6792 67.8819 58.6792 62.8911C58.6792 57.9003 54.7384 53.8545 49.8773 53.8545C45.0162 53.8545 41.0754 57.9003 41.0754 62.8911C41.0754 67.8819 45.0162 71.9277 49.8773 71.9277Z" fill="#152D40"/>
<path d="M51.8128 68.5247C54.2321 68.5247 56.1933 66.1076 56.1933 63.1261C56.1933 60.1446 54.2321 57.7275 51.8128 57.7275C49.3936 57.7275 47.4324 60.1446 47.4324 63.1261C47.4324 66.1076 49.3936 68.5247 51.8128 68.5247Z" fill="#2867A4"/>
<path d="M17.238 65.656C17.238 65.656 22.1281 67.552 31.5093 66.3547C40.8906 65.157 40.8906 63.5603 40.8906 63.5603C40.8906 63.5603 37.5972 59.4686 31.9087 59.5682C26.2203 59.6678 17.238 65.656 17.238 65.656Z" fill="#D97938"/>
<path d="M37.5968 63.4603C37.5968 63.4603 39.6925 48.6899 42.6866 45.3969C45.6807 42.1035 30.5114 43.8002 30.5114 43.8002L25.2219 63.3606L37.5968 63.4603Z" fill="#244FA4"/>
<path d="M40.0922 45.6958C40.0922 45.6958 34.6034 59.3681 37.1981 64.1586C39.7928 68.949 58.3556 62.8612 59.9523 60.3661C61.549 57.8711 58.8546 51.085 55.9602 48.4902C53.0661 45.8955 52.5671 43.9995 52.5671 43.9995L40.0922 45.6958Z" fill="#2D62ED"/>
<path d="M17.737 65.3565C17.737 65.3565 32.2076 66.3546 36.4991 64.7579C40.7905 63.1612 35.1021 58.9694 26.9186 59.7681C18.7351 60.5665 14.344 64.3589 14.344 64.3589L17.737 65.3565Z" fill="#2755BB"/>
<path d="M18.835 63.061C18.835 63.061 21.0304 62.3623 21.9288 61.5144C22.8272 60.666 24.2242 60.5664 25.7708 60.8157C27.3179 61.065 27.5672 61.614 27.5672 61.614C27.5672 61.614 27.9165 63.4604 27.5172 64.0591C27.1178 64.6577 22.5274 64.7077 20.681 64.5081C18.8351 64.3084 17.6373 64.0091 18.835 63.061Z" fill="#29496B"/>
<path d="M31.9084 46.2943C31.9084 46.2943 37.9963 46.893 46.379 46.1947C54.7622 45.496 54.8619 44.7973 54.2632 43.1009C53.6646 41.4042 50.4708 42.4023 48.4751 41.9032C46.4791 41.4042 34.2038 43.0009 34.2038 43.0009L31.9084 46.2943Z" fill="#29496B"/>
<path d="M15.6062 34.0122C15.6062 34.0122 9.84845 35.8405 8.5637 41.4072C7.55977 45.7581 6.30534 53.9184 7.38608 59.8207C8.46682 65.723 15.9504 67.5288 15.9504 67.5288L17.518 34.5939L15.6062 34.0122Z" fill="#244FA4"/>
<path d="M48.2758 25.0376H37.4976V43.201H48.2758V25.0376Z" fill="#A9402C"/>
<path d="M56.7586 41.9036L48.1758 43.201V25.0376H56.7586V41.9036Z" fill="#D14F2D"/>
<path d="M29.6482 35.4263L29.2414 36.5306C29.2414 36.5306 21.2788 37.5767 18.6054 41.4711C15.9319 45.3652 14.3624 58.9075 15.4667 59.7212C16.5711 60.5349 18.8377 60.5349 19.8259 59.5467C20.8141 58.5585 22.8483 47.5735 24.0106 46.0044C25.1729 44.4353 32.9613 42.2845 34.4143 39.3203C35.8672 36.3562 35.1697 35.8331 35.1697 35.8331L29.6482 35.4263Z" fill="#0F2330"/>
<path d="M44.0041 35.0967C44.0041 35.0967 44.9923 37.3054 42.2023 42.11C39.4126 46.9147 33.3098 46.4885 31.6048 47.9607C29.8998 49.433 29.7451 60.2825 28.4276 61.29C27.1102 62.2974 24.3977 61.6775 22.6931 61.29C20.9881 60.9024 25.8703 42.1486 27.2653 40.0561C28.6604 37.9635 33.3098 37.2664 33.3098 37.2664L33.6198 35.2515L44.0041 35.0967Z" fill="#152D40"/>
<path d="M23.1714 34.0947C23.1714 34.0947 27.0785 36.0069 28.7413 40.4956C30.4038 44.9848 24.201 65.5798 20.8757 66.993C17.5504 68.4061 11.6165 69.5916 10.3692 58.0363C9.12227 46.481 15.6067 35.5079 17.8509 34.4271" fill="#2D62ED"/>
<path d="M16.7017 32.7173L12.9755 32.4518L9.45479 32.2009C8.81438 32.1552 8.33231 31.5991 8.378 30.9587C8.42368 30.3183 8.9798 29.8362 9.62021 29.8819L16.8671 30.3982C17.5075 30.4439 17.9896 31.0001 17.9439 31.6405C17.8978 32.2805 17.3417 32.7629 16.7017 32.7173Z" fill="#29496B"/>
<path d="M15.8731 30.3889C15.8731 30.3889 15.2339 29.6138 14.7495 29.3622C14.265 29.1101 13.8389 29.2846 13.8389 29.2846C13.8389 29.2846 13.3351 28.9746 12.9476 28.9746C12.56 28.9746 12.3663 29.207 12.3663 29.207C12.3663 29.207 11.9401 28.9549 11.6495 28.9939C11.3588 29.0325 11.2233 29.2263 11.2233 29.2263C11.2233 29.2263 10.8747 29.0518 10.4679 29.2456C10.061 29.4394 9.40212 30.4661 9.59589 31.435C9.78967 32.4035 10.642 32.6556 10.8551 32.578C11.0681 32.5004 11.1264 32.3456 11.1264 32.3456C11.1264 32.3456 11.5526 32.8879 11.9594 32.7139C12.3663 32.5394 12.3663 32.5394 12.3663 32.5394C12.3663 32.5394 12.8507 32.8879 13.1607 32.7525C13.4706 32.617 13.4706 32.617 13.4706 32.617C13.4706 32.617 13.7223 32.9076 14.1292 32.8493C14.536 32.7911 14.6136 32.6556 14.7298 32.5201C14.846 32.3846 14.1244 31.8816 14.1875 31.6095C14.5463 30.0597 15.8731 30.3889 15.8731 30.3889Z" fill="#E1964F"/>
<path d="M31.4499 15.2973C31.4499 15.2973 28.5826 15.0456 28.1175 19.2882C27.6523 23.5312 26.8 23.3953 25.0178 24.5966C23.7665 25.4398 18.3144 25.7009 17.1522 27.4445C15.9895 29.1881 17.9076 31.7454 22.0923 31.1062C26.277 30.467 29.1442 29.7887 30.481 25.8364C31.8181 21.8845 31.4499 15.2973 31.4499 15.2973Z" fill="#152D40"/>
<path d="M29.9387 35.6008L40.4586 36.066C41.9454 36.066 44.9789 36.0022 44.934 34.5161C44.7863 29.6379 44.7378 15.5828 43.5114 15.072C41.8745 14.3898 39.0104 13.0259 39.0104 13.0259L34.2365 13.6163C34.2365 13.6163 31.0994 14.3898 30.3724 15.6623C30.1857 15.9885 30.0053 17.1996 29.8403 18.8226C29.7217 19.9794 29.6126 21.346 29.513 22.7482C29.342 25.1716 29.1825 28.0995 29.0754 30.1987C28.999 31.7048 28.4315 35.6008 29.9387 35.6008Z" fill="#2867A4"/>
<path d="M31.3704 3.55908C31.3704 3.55908 29.8847 7.34087 31.1679 9.36686C32.4511 11.3928 33.4641 9.67052 33.4641 9.67052L32.147 3.86274L31.3704 3.55908Z" fill="#152D40"/>
<path d="M38.4613 10.2451L38.5291 12.4062C38.5291 12.4062 36.6382 13.9596 35.3999 13.8918C34.162 13.8245 34.342 13.4865 34.342 13.4865L34.3196 11.9785C34.3196 11.9785 37.2908 10.2676 38.4613 10.2451Z" fill="#C17638"/>
<path d="M31.9619 9.48507C32.097 11.7812 33.3624 12.3378 34.4432 12.6753C35.5196 13.0116 37.5022 12.0404 38.2183 10.8305C38.2198 10.8265 38.2222 10.8222 38.225 10.8183C38.26 10.7576 38.2939 10.6966 38.3234 10.6347H38.3246C38.9201 9.45947 38.7988 8.12785 38.7988 8.12785C38.7988 8.12785 38.8327 7.36338 38.7933 6.46263C38.7543 5.56189 38.6405 4.52723 38.349 3.98686C37.763 2.90652 35.9961 2.64697 35.2195 2.64697C34.4428 2.64697 32.9572 3.22121 32.3494 4.03137C31.7421 4.84153 31.9217 8.81 31.9619 9.48507Z" fill="#E1964F"/>
<path d="M38.7821 6.22656C38.7821 6.22656 39.3898 6.26043 39.7108 6.88509C40.0314 7.50974 39.7951 8.92801 38.6809 9.07964C37.5663 9.23167 38.7821 6.22656 38.7821 6.22656Z" fill="#E1964F"/>
<path d="M31.9785 4.31862C31.9785 4.31862 32.7213 4.57186 34.3759 4.48758C36.0305 4.40329 36.7902 4.25127 36.7902 4.25127C36.7902 4.25127 36.6382 5.19652 36.9927 5.95626C37.3471 6.71601 37.7355 6.54704 37.8367 7.13822C37.9379 7.729 37.9041 8.04999 38.2081 8.03306C38.5122 8.01612 38.4866 6.6908 38.6725 6.40368C38.8584 6.11656 39.4996 6.53011 39.5586 6.6652C39.6177 6.80029 40.4535 4.30168 38.841 3.43205C38.841 3.43205 38.3428 2.19968 36.1987 2.10673C34.0549 2.01378 32.3413 2.77353 31.9785 4.31862Z" fill="#151A25"/>
<path d="M36.5476 6.51842C36.5476 6.51842 36.3223 6.12457 35.7146 6.12457C35.1069 6.12457 35.0506 6.49597 34.8592 6.4621C34.6678 6.42823 34.7465 5.80909 35.3657 5.68542C35.9848 5.56175 36.559 5.85438 36.5476 6.51842Z" fill="#151A25"/>
<path d="M32.1115 6.50768C32.1115 6.50768 32.304 6.11382 32.8231 6.11382C33.3422 6.11382 33.3907 6.48523 33.5541 6.45136C33.7176 6.41748 33.6502 5.79874 33.1213 5.67468C32.5924 5.55101 32.102 5.84364 32.1115 6.50768Z" fill="#151A25"/>
<path d="M35.321 7.16309C35.321 7.35411 35.4116 7.50929 35.5235 7.50929C35.6353 7.50929 35.7259 7.3545 35.7259 7.16309C35.7259 6.97207 35.6353 6.81689 35.5235 6.81689C35.4116 6.81729 35.321 6.97207 35.321 7.16309Z" fill="#151A25"/>
<path d="M32.9744 7.14649C32.9744 7.33751 33.065 7.49269 33.1768 7.49269C33.2887 7.49269 33.3793 7.3379 33.3793 7.14649C33.3793 6.95547 33.2887 6.80029 33.1768 6.80029C33.065 6.80029 32.9744 6.95508 32.9744 7.14649Z" fill="#151A25"/>
<path d="M31.8992 8.01568C31.8992 8.01568 33.2722 7.49776 34.4427 7.64427C35.6133 7.79079 37.7519 8.3985 37.7519 8.3985C37.7519 8.3985 37.8307 10.4355 36.7389 11.3024C35.6471 12.1689 35.0619 12.2929 34.184 12.2027C33.3061 12.1125 32.5294 11.6738 32.2706 11.0661C32.0115 10.4584 31.7527 8.43198 31.8992 8.01568Z" fill="#B2BFE1"/>
<path d="M38.5033 7.22266L37.6089 8.37901L37.7353 8.48023L38.4612 7.49245L38.5033 7.22266Z" fill="#EFF5E1"/>
<path d="M37.1362 10.784C37.1362 10.784 37.7723 11.0326 38.2181 10.8301C38.2197 10.8262 38.2221 10.8219 38.2248 10.8179C38.2599 10.7573 38.2938 10.6962 38.3233 10.6344C38.2827 10.6466 37.7262 10.8167 37.2875 10.5737L37.1362 10.784Z" fill="#EFF5E1"/>
<path d="M37.246 8.65739C37.246 8.65739 35.3212 7.98193 34.0156 7.98193C32.6536 7.98193 32.0684 8.37579 32.0684 8.37579L32.1471 9.58019C32.1471 9.58019 32.7663 8.97248 34.4319 9.18634C36.0979 9.4002 36.9305 9.77161 36.9305 9.77161L37.246 8.65739Z" fill="#9FAFD3"/>
<path d="M36.8404 9.99643C36.8404 9.99643 33.2725 9.07363 32.2146 9.82747L32.3048 10.3903C32.3048 10.3903 32.8452 9.87237 34.8148 10.2327C36.7845 10.5931 36.6608 10.5931 36.6608 10.5931L36.8404 9.99643Z" fill="#9FAFD3"/>
<path d="M30.942 4.3246C30.957 6.43172 35.9597 5.45654 36.9605 5.24149C37.0712 5.21707 37.1334 5.2025 37.1334 5.2025C37.1334 5.2025 37.3807 9.09654 37.9652 10.0189C38.2649 10.4916 39.1834 10.6755 40.0491 10.2891C40.0503 10.2879 40.0519 10.2879 40.053 10.2879C40.877 9.91772 41.6509 9.03037 41.7927 7.38563C42.0845 4.00912 40.8242 1.15092 37.6056 0.520361C34.3863 -0.110987 30.9207 0.969748 30.942 4.3246Z" fill="#2867A4"/>
<path d="M36.9604 5.24198C37.0711 5.21756 37.1333 5.20299 37.1333 5.20299C37.1333 5.20299 37.3807 9.09703 37.9652 10.0194C38.2649 10.4921 39.1834 10.676 40.0491 10.2896C39.7816 10.3357 39.0495 10.4003 38.6863 9.81699C38.2354 9.09703 37.5827 4.94383 37.5827 4.94383L36.975 4.70752L36.9604 5.24198Z" fill="#152D40"/>
<path d="M37.5949 5.00816C37.5949 5.00816 37.5835 4.68953 37.2968 4.57138C37.0096 4.45322 34.207 3.74428 33.0254 3.81163C31.8435 3.87898 30.4591 4.38547 30.2228 4.84156C29.9864 5.29725 32.9577 5.7364 34.8655 5.65211C36.7733 5.56783 37.5949 5.00816 37.5949 5.00816Z" fill="#1C3B51"/>
<path d="M39.6431 6.56327C39.6431 7.47702 40.055 8.21786 40.5631 8.21786C41.0712 8.21786 41.4832 7.47702 41.4832 6.56327C41.4832 5.64953 41.0712 4.90869 40.5631 4.90869C40.055 4.90869 39.6431 5.64953 39.6431 6.56327Z" fill="#1C3B51"/>
<path d="M37.6725 4.27659C37.6725 4.27659 34.3697 2.57357 31.2751 3.98908C31.2751 3.98908 31.6655 2.83902 32.3933 2.28605C33.1215 1.73308 34.2763 1.27503 35.9561 1.95443C37.5426 2.59602 37.6725 4.27659 37.6725 4.27659Z" fill="#275C89"/>
<path d="M29.571 22.7678C30.7999 23.2916 33.2114 24.1046 36.3745 24.1046C41.046 24.1046 43.1263 22.229 43.1263 22.229L43.1515 17.8545C43.1515 17.8545 38.7955 20.7966 34.7038 20.4559C31.8912 20.2212 30.4958 19.3578 29.8983 18.8423C29.7798 19.9986 29.6707 21.3657 29.571 22.7678Z" fill="#1C3B51"/>
<path d="M10.8917 29.6724C10.8917 29.6724 10.4521 30.9421 10.8814 31.5975C11.3107 32.2529 10.8231 32.0686 10.5742 31.7011C10.3245 31.3332 10.3273 30.5833 10.8917 29.6724Z" fill="#C16A2F"/>
<path d="M12.0621 29.7422C12.0621 29.7422 11.6225 31.012 12.0518 31.6673C12.4811 32.3227 11.9935 32.1384 11.7446 31.7709C11.4949 31.4031 11.4977 30.6528 12.0621 29.7422Z" fill="#C16A2F"/>
<path d="M13.3316 30.0063C13.3316 30.0063 12.892 31.2761 13.3213 31.9315C13.7506 32.5869 13.263 32.4026 13.0141 32.0351C12.7648 31.6672 12.7676 30.9169 13.3316 30.0063Z" fill="#C16A2F"/>
<path d="M39.0685 13.0446L38.5455 11.8398C38.5455 11.8398 36.204 13.3857 35.3174 13.4539L35.1583 13.8631L34.9764 13.3857C34.9764 13.3857 34.4309 13.2494 34.2942 13.0446C34.1579 12.8398 33.9531 13.9769 33.9531 13.9769C33.9531 13.9769 34.1579 14.4542 35.5218 14.4542C36.8862 14.4542 39.0685 13.0446 39.0685 13.0446Z" fill="#152D40"/>
<path d="M35.2491 14.363C35.2491 14.363 33.5441 29.7942 33.6804 32.9655L33.2026 32.9659C33.2026 32.9659 33.8167 17.864 34.9762 14.3516L35.2491 14.363Z" fill="#B2BFE1"/>
<path d="M29.7445 31.0288C29.7445 31.0288 29.7059 30.4089 30.9457 29.9437C32.1856 29.4786 37.9591 30.0599 39.4313 29.3624C40.9036 28.6649 41.0587 28.9941 41.4463 28.9169C41.8338 28.8397 41.5625 24.3254 41.7948 22.1166C42.0272 19.9079 42.7054 15.7232 43.364 15.0647C43.364 15.0647 43.989 14.2565 45.8051 16.6535C47.258 18.5716 46.5026 32.579 43.4219 33.9157C39.2687 35.718 32.6113 35.95 31.1584 35.5431C29.7055 35.1363 29.531 33.7413 29.531 33.7413L29.7445 31.0288Z" fill="#152D40"/>
<path d="M33.1061 32.8979C33.1061 34.1015 32.1561 35.0774 30.9848 35.0774C29.8131 35.0774 28.8635 34.1015 28.8635 32.8979C28.8635 31.6942 29.8131 30.7183 30.9848 30.7183C32.1565 30.7187 33.1061 31.6942 33.1061 32.8979Z" fill="#102533"/>
<path d="M12.8896 28.5485C12.8896 28.5485 13.7033 26.6695 15.4855 26.3981C17.2681 26.1267 19.6509 26.8243 21.0845 28.5678C22.5182 30.3114 26.6643 30.8538 27.6717 31.5903C28.6792 32.3264 28.3303 34.2638 27.0518 34.6899C25.773 35.1161 21.7434 34.1862 20.077 35.0385C18.411 35.8908 15.4079 35.4839 14.0129 34.903C12.6182 34.3221 11.3008 31.1834 12.8896 28.5485Z" fill="#2D62ED"/>
<path d="M32.0078 34.5677L28.7411 34.1518L25.6545 33.7591C25.0933 33.6878 24.7014 33.1305 24.7798 32.515C24.8581 31.8994 25.3768 31.4582 25.9381 31.5295L32.2914 32.3381C32.8526 32.4094 33.2445 32.9667 33.1661 33.5823C33.0877 34.1983 32.5694 34.6394 32.0078 34.5677Z" fill="#29496B"/>
<path d="M32.3412 32.326C32.3412 32.326 31.7019 31.5508 31.2175 31.2992C30.7331 31.0475 30.3069 31.2216 30.3069 31.2216C30.3069 31.2216 29.8032 30.9116 29.4156 30.9116C29.0281 30.9116 28.8343 31.144 28.8343 31.144C28.8343 31.144 28.4081 30.8919 28.1175 30.9309C27.8268 30.9695 27.6913 31.1633 27.6913 31.1633C27.6913 31.1633 27.3428 30.9888 26.9359 31.1826C26.529 31.3764 25.8701 32.4031 26.0639 33.372C26.2577 34.3409 27.11 34.5926 27.3231 34.515C27.5361 34.4374 27.5944 34.2826 27.5944 34.2826C27.5944 34.2826 28.0206 34.825 28.4274 34.6509C28.8343 34.4764 28.8343 34.4764 28.8343 34.4764C28.8343 34.4764 29.3187 34.825 29.6287 34.6895C29.9386 34.554 29.9387 34.554 29.9387 34.554C29.9387 34.554 30.1903 34.8446 30.5972 34.7864C31.004 34.7281 31.0816 34.5926 31.1978 34.4571C31.314 34.3216 30.5924 33.8187 30.6555 33.5465C31.0143 31.9967 32.3412 32.326 32.3412 32.326Z" fill="#E1964F"/>
<path d="M18.9323 31.4486C19.3307 29.7616 18.286 28.0711 16.5991 27.6728C14.9121 27.2744 13.2216 28.3191 12.8233 30.006C12.425 31.693 13.4696 33.3835 15.1566 33.7818C16.8435 34.1801 18.534 33.1355 18.9323 31.4486Z" fill="#FEF6D4"/>
<path d="M11.1752 81.2034C16.3837 81.2034 20.6061 76.8684 20.6061 71.5209C20.6061 66.1734 16.3837 61.8384 11.1752 61.8384C5.96672 61.8384 1.74438 66.1734 1.74438 71.5209C1.74438 76.8684 5.96672 81.2034 11.1752 81.2034Z" fill="#152D40"/>
<path d="M13.2492 77.5566C15.8414 77.5566 17.9428 74.9669 17.9428 71.7724C17.9428 68.5779 15.8414 65.9883 13.2492 65.9883C10.657 65.9883 8.55566 68.5779 8.55566 71.7724C8.55566 74.9669 10.657 77.5566 13.2492 77.5566Z" fill="#2867A4"/>
<path d="M15.0946 62.7817C15.0946 62.7817 11.0706 73.7636 12.1604 75.0212C13.2501 76.2787 14.5916 76.2787 15.4297 73.4284C16.2682 70.5781 17.6932 64.291 17.6932 64.291L15.0946 62.7817Z" fill="#29496B"/>
<path d="M0.821309 67.8512C0.821309 67.8512 1.969 66.7035 3.81538 66.8532C5.66177 67.0029 5.61175 68.2502 7.10879 68.2502C8.60583 68.2502 8.95519 65.7551 13.2963 65.1565C17.6373 64.5578 18.5357 67.0029 20.5318 67.4519C22.5278 67.9009 20.9307 64.5078 16.39 61.9131C11.8492 59.3184 6.95914 60.4161 3.51606 62.7615C0.0729898 65.1069 -0.875415 68.2006 0.821309 67.8512Z" fill="#2D62ED"/>
<path d="M17.3881 38.411C17.3881 38.411 20.8812 37.6627 21.8292 38.0117C22.7772 38.3606 20.1325 39.2094 22.0785 39.4087C24.0245 39.6084 27.2679 40.207 27.5176 40.706C27.7669 41.205 21.1805 40.3567 20.4818 40.207C19.7831 40.0574 20.4818 38.76 20.4818 38.76C20.4818 38.76 17.5877 38.76 17.3881 38.76C17.1884 38.7604 17.3881 38.411 17.3881 38.411Z" fill="#FEF6D4"/>
<path d="M21.854 63.0359C21.854 63.0359 27.1683 50.0871 26.7941 46.195C26.42 42.303 26.0458 45.746 24.3243 52.1828C22.6024 58.62 20.2073 64.2336 21.854 63.0359Z" fill="#C16A2F"/>
<path d="M27.4332 31.6938C27.4332 31.6938 26.9937 32.9636 27.423 33.619C27.8523 34.2744 27.3647 34.0901 27.1158 33.7226C26.8665 33.3547 26.8688 32.6044 27.4332 31.6938Z" fill="#C16A2F"/>
<path d="M28.6036 31.7627C28.6036 31.7627 28.1641 33.0325 28.5934 33.6879C29.0227 34.3432 28.5351 34.1589 28.2858 33.7914C28.0369 33.4236 28.0396 32.6733 28.6036 31.7627Z" fill="#C16A2F"/>
<path d="M29.8736 32.0278C29.8736 32.0278 29.434 33.2976 29.8633 33.953C30.2926 34.6084 29.8051 34.424 29.5561 34.0566C29.3064 33.6887 29.3092 32.9384 29.8736 32.0278Z" fill="#C16A2F"/>
<path d="M55.461 50.8857C55.461 50.8857 47.1278 52.8318 46.7284 53.5305C46.3295 54.2292 57.008 51.9838 55.461 50.8857Z" fill="#C16A2F"/>
<path d="M56.0098 53.1309C56.0098 53.1309 47.6766 55.0769 47.2773 55.7756C46.8783 56.4743 57.5569 54.2289 56.0098 53.1309Z" fill="#C16A2F"/>
<path d="M56.3091 55.2764C56.3091 55.2764 47.976 57.2224 47.5766 57.9211C47.1776 58.6198 57.8562 56.3744 56.3091 55.2764Z" fill="#C16A2F"/>
<path d="M53.7141 42.3529L52.186 42.5837L52.1675 25.0879H53.7141V42.3529Z" fill="#EA6F57"/>
</svg>
