<svg width="28" height="28" viewBox="0 0 28 28" fill="none" xmlns="http://www.w3.org/2000/svg">
<g clip-path="url(#clip0_185_2076)">
<rect width="28" height="28" rx="14" fill="white"/>
<path d="M14 0C17.713 0 21.274 1.475 23.8995 4.1005C26.525 6.72601 28 10.287 28 14C28 17.713 26.525 21.274 23.8995 23.8995C21.274 26.525 17.713 28 14 28C10.287 28 6.72601 26.525 4.1005 23.8995C1.475 21.274 0 17.713 0 14C0 10.287 1.475 6.72601 4.1005 4.1005C6.72601 1.475 10.287 0 14 0ZM12.256 16.762L9.146 13.65C9.03451 13.5385 8.90215 13.4501 8.75648 13.3897C8.6108 13.3294 8.45467 13.2983 8.297 13.2983C8.13933 13.2983 7.9832 13.3294 7.83752 13.3897C7.69185 13.4501 7.55949 13.5385 7.448 13.65C7.22283 13.8752 7.09633 14.1806 7.09633 14.499C7.09633 14.8174 7.22283 15.1228 7.448 15.348L11.408 19.308C11.5192 19.4201 11.6514 19.509 11.7971 19.5697C11.9429 19.6304 12.0991 19.6616 12.257 19.6616C12.4149 19.6616 12.5711 19.6304 12.7169 19.5697C12.8626 19.509 12.9948 19.4201 13.106 19.308L21.306 11.106C21.419 10.995 21.5089 10.8627 21.5705 10.7167C21.6321 10.5708 21.6641 10.4141 21.6649 10.2557C21.6656 10.0973 21.635 9.9403 21.5748 9.7938C21.5145 9.64729 21.4259 9.51416 21.3139 9.40208C21.202 9.29001 21.069 9.2012 20.9225 9.1408C20.7761 9.08039 20.6191 9.04957 20.4607 9.05012C20.3023 9.05067 20.1456 9.08258 19.9996 9.144C19.8536 9.20542 19.7212 9.29515 19.61 9.408L12.256 16.762Z" fill="#2A60F1"/>
</g>
<defs>
<clipPath id="clip0_185_2076">
<rect width="28" height="28" rx="14" fill="white"/>
</clipPath>
</defs>
</svg>
