<svg width="182" height="181" viewBox="0 0 182 181" fill="none" xmlns="http://www.w3.org/2000/svg">
<g clip-path="url(#clip0_191_8910)">
<mask id="mask0_191_8910" style="mask-type:luminance" maskUnits="userSpaceOnUse" x="0" y="0" width="182" height="181">
<path d="M181.5 0H0.5V181H181.5V0Z" fill="white"/>
</mask>
<g mask="url(#mask0_191_8910)">
<path d="M126.701 11.9788C138.621 9.76535 149.813 18.42 150.671 30.5138C151.187 37.8113 155.589 44.2673 162.193 47.4146C173.138 52.6304 177.106 66.2105 170.69 76.4984C166.819 82.7066 166.586 90.5162 170.08 96.9445C175.868 107.597 171.096 120.916 159.859 125.468C153.078 128.216 148.299 134.397 147.346 141.65C145.768 153.671 134.078 161.641 122.312 158.719C115.211 156.956 107.711 159.147 102.677 164.455C94.334 173.253 80.1925 172.83 72.3906 163.55C67.6827 157.95 60.327 155.314 53.1344 156.65C41.2141 158.864 30.0216 150.209 29.1645 138.115C28.6472 130.818 24.2459 124.362 17.6413 121.214C6.69668 115.999 2.72872 102.418 9.14398 92.1304C13.0152 85.9223 13.2486 78.1125 9.75571 71.6845C3.96677 61.0317 8.73929 47.7124 19.9762 43.1604C26.757 40.4133 31.5365 34.2323 32.489 26.9785C34.0675 14.9573 45.7571 6.98739 57.5237 9.90965C64.6238 11.6728 72.1235 9.48199 77.1577 4.17325C85.5004 -4.62423 99.6423 -4.20101 107.444 5.07913C112.152 10.6793 119.508 13.3146 126.701 11.9788Z" fill="#FBFBFB" fill-opacity="0.2"/>
<path d="M122.22 23.5267C132.237 21.6666 141.643 28.9396 142.363 39.1026C142.797 45.235 146.496 50.6603 152.046 53.3052C161.244 57.6883 164.578 69.1004 159.187 77.7458C155.934 82.9629 155.738 89.5258 158.673 94.9278C163.538 103.88 159.528 115.072 150.084 118.898C144.386 121.207 140.37 126.401 139.569 132.496C138.243 142.598 128.419 149.296 118.532 146.84C112.565 145.359 106.262 147.2 102.031 151.661C95.0206 159.054 83.1368 158.698 76.5804 150.9C72.6241 146.194 66.4427 143.979 60.3984 145.101C50.3811 146.962 40.9755 139.689 40.2552 129.526C39.8205 123.393 36.1219 117.968 30.5717 115.323C21.3744 110.94 18.0399 99.5277 23.4309 90.8822C26.6841 85.6653 26.8803 79.1023 23.945 73.7005C19.0803 64.7484 23.0909 53.5555 32.5338 49.7302C38.2321 47.4217 42.2485 42.2275 43.049 36.1317C44.3754 26.0297 54.1989 19.3321 64.087 21.7879C70.0535 23.2695 76.3559 21.4285 80.5864 16.9673C87.5972 9.57428 99.4814 9.92993 106.038 17.7285C109.994 22.4346 116.175 24.6492 122.22 23.5267Z" fill="#FBFBFB" fill-opacity="0.3"/>
<path d="M118.271 31.4769C127.008 29.8545 135.212 36.1982 135.84 45.0627C136.219 50.4117 139.445 55.1438 144.286 57.4507C152.309 61.2738 155.217 71.2278 150.515 78.7687C147.677 83.3192 147.506 89.0435 150.067 93.7554C154.31 101.563 150.812 111.326 142.575 114.663C137.605 116.677 134.102 121.207 133.404 126.524C132.247 135.335 123.678 141.177 115.054 139.035C109.849 137.743 104.352 139.349 100.662 143.24C94.5467 149.688 84.1812 149.378 78.4625 142.576C75.0117 138.471 69.6201 136.539 64.348 137.519C55.6106 139.141 47.4067 132.797 46.7785 123.933C46.3993 118.584 43.1733 113.852 38.3322 111.545C30.3099 107.722 27.4015 97.7675 32.1038 90.2267C34.9413 85.6763 35.1124 79.9518 32.5522 75.2402C28.309 67.4319 31.8071 57.669 40.0436 54.3325C45.0138 52.3189 48.5171 47.7884 49.2153 42.4715C50.3723 33.6601 58.9406 27.8183 67.5653 29.9603C72.7695 31.2526 78.2667 29.6468 81.9567 25.7556C88.0717 19.3072 98.4375 19.6174 104.156 26.4196C107.607 30.5244 112.998 32.456 118.271 31.4769Z" fill="#FBFBFB"/>
<path d="M119.063 68.6568C120.909 70.502 120.909 73.4934 119.063 75.3386L80.6751 113.726L62.9576 96.0088C61.1124 94.1638 61.1124 91.1722 62.9576 89.327C64.8026 87.4821 67.7941 87.4821 69.6393 89.327L80.6751 100.363L112.382 68.6568C114.227 66.8117 117.218 66.8117 119.063 68.6568Z" fill="#20F327"/>
<path d="M27.2772 33.6888C27.3031 33.7005 26.5039 39.3264 26.5439 39.4328C26.5839 39.5393 30.8891 43.248 30.8773 43.2739C30.8656 43.2998 25.2397 42.5006 25.1333 42.5406C25.0268 42.5806 21.3181 46.8858 21.2922 46.874C21.2663 46.8623 22.0655 41.2364 22.0255 41.13C21.9855 41.0235 17.6803 37.3148 17.6921 37.2889C17.7038 37.263 23.3297 38.0622 23.4361 38.0222C23.5426 37.9822 27.2513 33.677 27.2772 33.6888Z" fill="#60FA65"/>
<path d="M27.2772 33.6888C27.3031 33.7005 26.5039 39.3264 26.5439 39.4328C26.5839 39.5393 30.8891 43.248 30.8773 43.2739C30.8656 43.2998 25.2397 42.5006 25.1333 42.5406C25.0268 42.5806 21.3181 46.8858 21.2922 46.874C21.2663 46.8623 22.0655 41.2364 22.0255 41.13C21.9855 41.0235 17.6803 37.3148 17.6921 37.2889C17.7038 37.263 23.3297 38.0622 23.4361 38.0222C23.5426 37.9822 27.2513 33.677 27.2772 33.6888Z" stroke="#47FF4D" stroke-width="0.402222"/>
<path d="M150.258 16.6335C150.29 16.6429 150.342 23.4615 150.409 23.5807C150.475 23.6999 156.244 27.3358 156.234 27.3686C156.225 27.4014 149.406 27.4533 149.287 27.5197C149.168 27.5861 145.532 33.3547 145.499 33.3453C145.466 33.336 145.414 26.5174 145.348 26.3982C145.282 26.2789 139.513 22.6431 139.522 22.6103C139.532 22.5775 146.35 22.5256 146.47 22.4592C146.589 22.3928 150.225 16.6242 150.258 16.6335Z" fill="#60FA65"/>
<path d="M150.258 16.6335C150.29 16.6429 150.342 23.4615 150.409 23.5807C150.475 23.6999 156.244 27.3358 156.234 27.3686C156.225 27.4014 149.406 27.4533 149.287 27.5197C149.168 27.5861 145.532 33.3547 145.499 33.3453C145.466 33.336 145.414 26.5174 145.348 26.3982C145.282 26.2789 139.513 22.6431 139.522 22.6103C139.532 22.5775 146.35 22.5256 146.47 22.4592C146.589 22.3928 150.225 16.6242 150.258 16.6335Z" stroke="#47FF4D" stroke-width="0.482667"/>
<path d="M151.912 139.021C151.934 139.025 152.431 143.544 152.483 143.619C152.535 143.693 156.607 145.714 156.603 145.736C156.599 145.758 152.08 146.255 152.006 146.307C151.931 146.359 149.911 150.431 149.888 150.427C149.866 150.423 149.369 145.905 149.317 145.83C149.265 145.756 145.193 143.735 145.197 143.713C145.201 143.69 149.72 143.194 149.794 143.142C149.869 143.09 151.889 139.017 151.912 139.021Z" fill="#60FA65"/>
<path d="M151.912 139.021C151.934 139.025 152.431 143.544 152.483 143.619C152.535 143.693 156.607 145.714 156.603 145.736C156.599 145.758 152.08 146.255 152.006 146.307C151.931 146.359 149.911 150.431 149.888 150.427C149.866 150.423 149.369 145.905 149.317 145.83C149.265 145.756 145.193 143.735 145.197 143.713C145.201 143.69 149.72 143.194 149.794 143.142C149.869 143.09 151.889 139.017 151.912 139.021Z" stroke="#47FF4D" stroke-width="0.321778"/>
<path d="M106.024 49.5511C106.05 49.5628 105.251 55.1887 105.291 55.2951C105.331 55.4016 109.636 59.1103 109.624 59.1362C109.613 59.1621 103.987 58.3629 103.88 58.4029C103.774 58.4429 100.065 62.7481 100.039 62.7363C100.013 62.7246 100.813 57.0987 100.773 56.9923C100.733 56.8858 96.4274 53.1771 96.4391 53.1512C96.4509 53.1253 102.077 53.9245 102.183 53.8845C102.29 53.8445 105.998 49.5393 106.024 49.5511Z" fill="#60FA65"/>
<path d="M106.024 49.5511C106.05 49.5628 105.251 55.1887 105.291 55.2951C105.331 55.4016 109.636 59.1103 109.624 59.1362C109.613 59.1621 103.987 58.3629 103.88 58.4029C103.774 58.4429 100.065 62.7481 100.039 62.7363C100.013 62.7246 100.813 57.0987 100.773 56.9923C100.733 56.8858 96.4274 53.1771 96.4391 53.1512C96.4509 53.1253 102.077 53.9245 102.183 53.8845C102.29 53.8445 105.998 49.5393 106.024 49.5511Z" stroke="#47FF4D" stroke-width="0.402222"/>
<path d="M121.675 111.171C121.708 111.18 121.76 117.999 121.826 118.118C121.892 118.237 127.661 121.873 127.652 121.906C127.642 121.939 120.824 121.99 120.705 122.057C120.585 122.123 116.949 127.892 116.917 127.882C116.884 127.873 116.832 121.055 116.766 120.935C116.699 120.816 110.931 117.18 110.94 117.147C110.949 117.115 117.768 117.063 117.887 116.996C118.006 116.93 121.642 111.161 121.675 111.171Z" fill="#60FA65"/>
<path d="M121.675 111.171C121.708 111.18 121.76 117.999 121.826 118.118C121.892 118.237 127.661 121.873 127.652 121.906C127.642 121.939 120.824 121.99 120.705 122.057C120.585 122.123 116.949 127.892 116.917 127.882C116.884 127.873 116.832 121.055 116.766 120.935C116.699 120.816 110.931 117.18 110.94 117.147C110.949 117.115 117.768 117.063 117.887 116.996C118.006 116.93 121.642 111.161 121.675 111.171Z" stroke="#47FF4D" stroke-width="0.482667"/>
<path d="M58.1668 85.6855C58.1892 85.6895 58.6857 90.2082 58.7378 90.2827C58.7899 90.3573 62.8621 92.3778 62.8581 92.4002C62.8541 92.4226 58.3355 92.919 58.2609 92.9711C58.1863 93.0232 56.1658 97.0954 56.1435 97.0914C56.1211 97.0875 55.6246 92.5688 55.5725 92.4942C55.5204 92.4196 51.4482 90.3992 51.4522 90.3768C51.4562 90.3544 55.9748 89.8579 56.0494 89.8058C56.124 89.7537 58.1444 85.6815 58.1668 85.6855Z" fill="#60FA65"/>
<path d="M58.1668 85.6855C58.1892 85.6895 58.6857 90.2082 58.7378 90.2827C58.7899 90.3573 62.8621 92.3778 62.8581 92.4002C62.8541 92.4226 58.3355 92.919 58.2609 92.9711C58.1863 93.0232 56.1658 97.0954 56.1435 97.0914C56.1211 97.0875 55.6246 92.5688 55.5725 92.4942C55.5204 92.4196 51.4482 90.3992 51.4522 90.3768C51.4562 90.3544 55.9748 89.8579 56.0494 89.8058C56.124 89.7537 58.1444 85.6815 58.1668 85.6855Z" stroke="#47FF4D" stroke-width="0.321778"/>
</g>
</g>
<defs>
<clipPath id="clip0_191_8910">
<rect width="181" height="181" fill="white" transform="translate(0.5)"/>
</clipPath>
</defs>
</svg>
